<svg width="96" height="96" viewBox="0 0 96 96" fill="none" xmlns="http://www.w3.org/2000/svg">
<g clip-path="url(#clip0)">
<path d="M48 -0.102051C21.477 -0.102051 -0.10498 21.474 -0.10498 48C-0.10498 74.526 21.477 96.102 48 96.102C74.523 96.102 96.105 74.526 96.105 48C96.105 21.474 74.523 -0.102051 48 -0.102051ZM48 92.8979C23.244 92.8979 3.10502 72.7559 3.10502 48C3.10502 23.244 23.244 3.10195 48 3.10195C72.756 3.10195 92.895 23.244 92.895 48C92.895 72.7559 72.756 92.8979 48 92.8979Z" fill="white"/>
<path d="M42.536 34.7165V40.913H38V48.4865H42.536V71H51.86V48.4865H58.115C58.115 48.4865 58.7045 44.855 58.988 40.8815H51.896V35.7065C51.896 34.928 52.913 33.8885 53.921 33.8885H58.997V26H52.0895C42.3065 26 42.536 33.5825 42.536 34.7165Z" fill="white"/>
</g>
<defs>
<clipPath id="clip0">
<rect width="96" height="96" fill="white"/>
</clipPath>
</defs>
</svg>
