<svg width="97" height="97" viewBox="0 0 97 97" fill="none" xmlns="http://www.w3.org/2000/svg">
<path d="M48.5538 37C46.2686 37 44.0348 37.6776 42.1348 38.9472C40.2348 40.2167 38.754 42.0211 37.8795 44.1323C37.005 46.2435 36.7762 48.5666 37.222 50.8078C37.6678 53.049 38.7682 55.1077 40.384 56.7235C41.9998 58.3393 44.0585 59.4397 46.2997 59.8855C48.5409 60.3313 50.864 60.1025 52.9752 59.228C55.0864 58.3535 56.8908 56.8727 58.1603 54.9727C59.4299 53.0727 60.1075 50.8389 60.1075 48.5537C60.1075 45.4895 58.8902 42.5508 56.7235 40.384C54.5567 38.2173 51.618 37 48.5538 37V37ZM48.5538 56.0552C47.0701 56.0552 45.6198 55.6153 44.3861 54.791C43.1525 53.9667 42.191 52.7952 41.6233 51.4244C41.0555 50.0537 40.9069 48.5454 41.1964 47.0903C41.4858 45.6351 42.2003 44.2985 43.2494 43.2494C44.2985 42.2003 45.6351 41.4858 47.0903 41.1964C48.5454 40.9069 50.0537 41.0555 51.4245 41.6233C52.7952 42.191 53.9668 43.1525 54.791 44.3861C55.6153 45.6198 56.0553 47.0701 56.0553 48.5537C56.0556 49.5389 55.8617 50.5145 55.4848 51.4248C55.108 52.3351 54.5554 53.1621 53.8588 53.8588C53.1621 54.5554 52.3351 55.108 51.4248 55.4848C50.5145 55.8617 49.539 56.0555 48.5538 56.0552Z" fill="white"/>
<path d="M70.8628 39.2232C70.8254 37.3569 70.4717 35.5105 69.8165 33.7625C69.251 32.2612 68.3658 30.9007 67.2223 29.7755C66.0994 28.6311 64.7403 27.7458 63.2398 27.1813C61.4911 26.5262 59.6438 26.1732 57.7768 26.1373C55.3783 26.027 54.611 26 48.5 26C42.389 26 41.6218 26.0247 39.2233 26.135C37.3562 26.1721 35.5089 26.5259 33.7603 27.1813C32.2601 27.7465 30.9011 28.6318 29.7778 29.7755C28.6308 30.8988 27.7437 32.2597 27.179 33.7625C26.5246 35.5106 26.1716 37.3571 26.135 39.2232C26.0225 41.6217 26 42.389 26 48.5C26 54.611 26.0225 55.3782 26.135 57.7767C26.1717 59.6429 26.5247 61.4894 27.179 63.2375C27.7432 64.74 28.6294 66.1009 29.7755 67.2245C30.9 68.3678 32.2597 69.253 33.7603 69.8188C35.5091 70.4732 37.3563 70.8262 39.2233 70.8627C41.6218 70.973 42.389 71 48.4978 71C54.6065 71 55.376 70.9753 57.7745 70.865C59.6408 70.8277 61.4873 70.4739 63.2353 69.8188C64.7302 69.2407 66.0878 68.3567 67.2211 67.2234C68.3545 66.0901 69.2385 64.7324 69.8165 63.2375C70.4724 61.4897 70.8262 59.6432 70.8628 57.7767C70.9708 55.376 70.9978 54.611 70.9978 48.5C70.9978 42.389 70.9708 41.6217 70.8628 39.2232ZM66.8128 57.5923C66.7961 59.0189 66.5351 60.4321 66.041 61.7705C65.6668 62.741 65.0934 63.6224 64.3579 64.3579C63.6224 65.0934 62.741 65.6668 61.7705 66.041C60.4325 66.537 59.0191 66.7988 57.5923 66.815C55.2185 66.923 54.5075 66.9455 48.4978 66.9455C42.488 66.9455 41.7793 66.923 39.4078 66.815C37.9809 66.7987 36.5675 66.5368 35.2295 66.041C34.2524 65.6797 33.3684 65.1047 32.642 64.358C31.8939 63.6327 31.3187 62.7484 30.959 61.7705C30.4629 60.4325 30.2011 59.0191 30.185 57.5923C30.077 55.2208 30.0545 54.5098 30.0545 48.5023C30.0545 42.4948 30.077 41.7815 30.185 39.4078C30.203 37.9811 30.4647 36.568 30.959 35.2295C31.3202 34.2524 31.8952 33.3683 32.642 32.642C33.3671 31.8937 34.2515 31.3185 35.2295 30.959C36.5675 30.463 37.9809 30.2012 39.4078 30.185C41.7793 30.0725 42.4925 30.05 48.4978 30.05C54.503 30.05 55.2185 30.0747 57.5923 30.1827C59.0189 30.2008 60.432 30.4625 61.7705 30.9568C62.7411 31.3309 63.6225 31.9042 64.3581 32.6397C65.0936 33.3752 65.6669 34.2567 66.041 35.2272C66.537 36.5652 66.7988 37.9786 66.815 39.4055C66.923 41.7793 66.9455 42.488 66.9455 48.4977C66.9455 54.5075 66.923 55.2163 66.815 57.59L66.8128 57.5923Z" fill="white"/>
<path d="M48.105 0C21.582 0 0 21.576 0 48.102C0 74.628 21.582 96.204 48.105 96.204C74.628 96.204 96.21 74.628 96.21 48.102C96.21 21.576 74.628 0 48.105 0ZM48.105 93C23.349 93 3.21 72.858 3.21 48.102C3.21 23.346 23.349 3.204 48.105 3.204C72.861 3.204 93 23.346 93 48.102C93 72.858 72.861 93 48.105 93Z" fill="white"/>
</svg>
