<svg width="96" height="96" viewBox="0 0 96 96" fill="none" xmlns="http://www.w3.org/2000/svg">
<g clip-path="url(#clip0)">
<path d="M48 -0.102051C21.477 -0.102051 -0.10498 21.474 -0.10498 48C-0.10498 74.526 21.477 96.102 48 96.102C74.523 96.102 96.105 74.526 96.105 48C96.105 21.474 74.523 -0.102051 48 -0.102051ZM48 92.8979C23.244 92.8979 3.10502 72.7559 3.10502 48C3.10502 23.244 23.244 3.10195 48 3.10195C72.756 3.10195 92.895 23.244 92.895 48C92.895 72.7559 72.756 92.8979 48 92.8979Z" fill="white"/>
<path d="M71 34.2615C69.344 34.9815 67.5665 35.4765 65.699 35.6925C67.607 34.5675 69.065 32.7855 69.758 30.666C67.9398 31.7256 65.956 32.4711 63.89 32.871C63.0209 31.9601 61.9754 31.2358 60.8173 30.7422C59.6591 30.2486 58.4125 29.9961 57.1535 30C52.055 30 47.924 34.0725 47.924 39.09C47.924 39.801 48.005 40.494 48.1625 41.16C44.5055 40.9864 40.9248 40.0523 37.6489 38.4175C34.373 36.7827 31.4739 34.4829 29.1365 31.665C28.3155 33.047 27.8833 34.6251 27.8855 36.2325C27.8855 39.3825 29.519 42.1725 31.994 43.797C30.529 43.7511 29.0954 43.3611 27.809 42.6585V42.771C27.8229 44.8836 28.5686 46.9261 29.9191 48.5506C31.2697 50.1752 33.1415 51.2815 35.216 51.681C33.8541 52.0412 32.4291 52.0934 31.0445 51.834C31.6481 53.6515 32.8025 55.2358 34.3476 56.3672C35.8927 57.4986 37.7517 58.1208 39.6665 58.1475C36.3813 60.6791 32.3479 62.0468 28.2005 62.0355C27.458 62.0355 26.7245 61.9905 26 61.9095C30.2321 64.5883 35.1393 66.0071 40.148 66C57.131 66 66.4145 52.149 66.4145 40.134L66.383 38.955C68.1933 37.6828 69.7577 36.0925 71 34.2615V34.2615Z" fill="white"/>
</g>
<defs>
<clipPath id="clip0">
<rect width="96" height="96" fill="white"/>
</clipPath>
</defs>
</svg>
